# xmcd
#
# Track frame offsets:
#	150
#	19855
#	42825
#	68637
#	90110
#	113722
#	137410
#	158605
#	183257
#	208810
#
# Disc length: 3124 seconds
#
# Revision: 1
# Processed by: cddbd v1.5.2PL0 Copyright (c) Steve Scherf et al.
# Submitted via: EZCDAudioConverter 8.0.2.1
#
DISCID=730c320a
DTITLE=Chế Linh, Thanh Tuyền - Áo Cưới Màu Hoa Cà 1
DYEAR=1989
DGENRE=Miscellaneous
TTITLE0=Chế Linh, Thanh Tuyền - Gió lạnh đêm hè
TTITLE1=Chế Linh - Áo Cưới Màu Hoa Cà
TTITLE2=Thanh Tuyền - Trăng rụng xuống cầu
TTITLE3=Chế Linh - Thư gửi người miền xa
TTITLE4=Thanh Tuyền - Bài ca cho nhau
TTITLE5=Chế Linh, Thanh Tuyền - Nhịp cầu tri âm
TTITLE6=Chế Linh - Nụ cười trong mắt em
TTITLE7=Thanh Tuyền - Bông hồng cài áo
TTITLE8=Chế Linh - Giọng ca dĩ vãng
TTITLE9=Thanh Tuyền - Tình đêm liên hoan
EXTD=
EXTT0=
EXTT1=
EXTT2=
EXTT3=
EXTT4=
EXTT5=
EXTT6=
EXTT7=
EXTT8=
EXTT9=
PLAYORDER=
